<svg id="visual" viewBox="0 0 960 250" width="960" height="250" xmlns="http://www.w3.org/2000/svg" xmlns:xlink="http://www.w3.org/1999/xlink" version="1.1"><path d="M0 123L22.8 109.7C45.7 96.3 91.3 69.7 137 56.5C182.7 43.3 228.3 43.7 274 52.5C319.7 61.3 365.3 78.7 411.2 89.2C457 99.7 503 103.3 548.8 105.3C594.7 107.3 640.3 107.7 686 96.8C731.7 86 777.3 64 823 63.2C868.7 62.3 914.3 82.7 937.2 92.8L960 103L960 251L937.2 251C914.3 251 868.7 251 823 251C777.3 251 731.7 251 686 251C640.3 251 594.7 251 548.8 251C503 251 457 251 411.2 251C365.3 251 319.7 251 274 251C228.3 251 182.7 251 137 251C91.3 251 45.7 251 22.8 251L0 251Z" fill="#fa7268"></path><path d="M0 88L22.8 93.8C45.7 99.7 91.3 111.3 137 115.5C182.7 119.7 228.3 116.3 274 110.2C319.7 104 365.3 95 411.2 96.3C457 97.7 503 109.3 548.8 115.7C594.7 122 640.3 123 686 117C731.7 111 777.3 98 823 96.7C868.7 95.3 914.3 105.7 937.2 110.8L960 116L960 251L937.2 251C914.3 251 868.7 251 823 251C777.3 251 731.7 251 686 251C640.3 251 594.7 251 548.8 251C503 251 457 251 411.2 251C365.3 251 319.7 251 274 251C228.3 251 182.7 251 137 251C91.3 251 45.7 251 22.8 251L0 251Z" fill="#ef5f67"></path><path d="M0 175L22.8 169.2C45.7 163.3 91.3 151.7 137 144.2C182.7 136.7 228.3 133.3 274 133.2C319.7 133 365.3 136 411.2 138.3C457 140.7 503 142.3 548.8 147C594.7 151.7 640.3 159.3 686 161.2C731.7 163 777.3 159 823 152.5C868.7 146 914.3 137 937.2 132.5L960 128L960 251L937.2 251C914.3 251 868.7 251 823 251C777.3 251 731.7 251 686 251C640.3 251 594.7 251 548.8 251C503 251 457 251 411.2 251C365.3 251 319.7 251 274 251C228.3 251 182.7 251 137 251C91.3 251 45.7 251 22.8 251L0 251Z" fill="#e34c67"></path><path d="M0 195L22.8 195C45.7 195 91.3 195 137 192.8C182.7 190.7 228.3 186.3 274 184.2C319.7 182 365.3 182 411.2 183.5C457 185 503 188 548.8 190.8C594.7 193.7 640.3 196.3 686 197.7C731.7 199 777.3 199 823 198.5C868.7 198 914.3 197 937.2 196.5L960 196L960 251L937.2 251C914.3 251 868.7 251 823 251C777.3 251 731.7 251 686 251C640.3 251 594.7 251 548.8 251C503 251 457 251 411.2 251C365.3 251 319.7 251 274 251C228.3 251 182.7 251 137 251C91.3 251 45.7 251 22.8 251L0 251Z" fill="#d53867"></path><path d="M0 198L22.8 198.5C45.7 199 91.3 200 137 201.5C182.7 203 228.3 205 274 204.3C319.7 203.7 365.3 200.3 411.2 198.2C457 196 503 195 548.8 196.2C594.7 197.3 640.3 200.7 686 204.8C731.7 209 777.3 214 823 212.2C868.7 210.3 914.3 201.7 937.2 197.3L960 193L960 251L937.2 251C914.3 251 868.7 251 823 251C777.3 251 731.7 251 686 251C640.3 251 594.7 251 548.8 251C503 251 457 251 411.2 251C365.3 251 319.7 251 274 251C228.3 251 182.7 251 137 251C91.3 251 45.7 251 22.8 251L0 251Z" fill="#c62368"></path></svg>