<svg id="visual" viewBox="0 0 1920 250" width="1920" height="250" xmlns="http://www.w3.org/2000/svg" xmlns:xlink="http://www.w3.org/1999/xlink" version="1.1"><path d="M0 40L35.5 49C71 58 142 76 213.2 86.8C284.3 97.7 355.7 101.3 426.8 97.8C498 94.3 569 83.7 640 87.2C711 90.7 782 108.3 853.2 100.7C924.3 93 995.7 60 1066.8 50.8C1138 41.7 1209 56.3 1280 59.3C1351 62.3 1422 53.7 1493.2 48.3C1564.3 43 1635.7 41 1706.8 38.5C1778 36 1849 33 1884.5 31.5L1920 30L1920 251L1884.5 251C1849 251 1778 251 1706.8 251C1635.7 251 1564.3 251 1493.2 251C1422 251 1351 251 1280 251C1209 251 1138 251 1066.8 251C995.7 251 924.3 251 853.2 251C782 251 711 251 640 251C569 251 498 251 426.8 251C355.7 251 284.3 251 213.2 251C142 251 71 251 35.5 251L0 251Z" fill="#fa7268"></path><path d="M0 102L35.5 95.5C71 89 142 76 213.2 72.2C284.3 68.3 355.7 73.7 426.8 79.7C498 85.7 569 92.3 640 102.8C711 113.3 782 127.7 853.2 131.7C924.3 135.7 995.7 129.3 1066.8 127C1138 124.7 1209 126.3 1280 125.8C1351 125.3 1422 122.7 1493.2 119.7C1564.3 116.7 1635.7 113.3 1706.8 104.3C1778 95.3 1849 80.7 1884.5 73.3L1920 66L1920 251L1884.5 251C1849 251 1778 251 1706.8 251C1635.7 251 1564.3 251 1493.2 251C1422 251 1351 251 1280 251C1209 251 1138 251 1066.8 251C995.7 251 924.3 251 853.2 251C782 251 711 251 640 251C569 251 498 251 426.8 251C355.7 251 284.3 251 213.2 251C142 251 71 251 35.5 251L0 251Z" fill="#ef5f67"></path><path d="M0 184L35.5 182.8C71 181.7 142 179.3 213.2 172.2C284.3 165 355.7 153 426.8 140.7C498 128.3 569 115.7 640 122C711 128.3 782 153.7 853.2 161.5C924.3 169.3 995.7 159.7 1066.8 152.5C1138 145.3 1209 140.7 1280 142C1351 143.3 1422 150.7 1493.2 149.7C1564.3 148.7 1635.7 139.3 1706.8 139.2C1778 139 1849 148 1884.5 152.5L1920 157L1920 251L1884.5 251C1849 251 1778 251 1706.8 251C1635.7 251 1564.3 251 1493.2 251C1422 251 1351 251 1280 251C1209 251 1138 251 1066.8 251C995.7 251 924.3 251 853.2 251C782 251 711 251 640 251C569 251 498 251 426.8 251C355.7 251 284.3 251 213.2 251C142 251 71 251 35.5 251L0 251Z" fill="#e34c67"></path><path d="M0 188L35.5 187.5C71 187 142 186 213.2 180.5C284.3 175 355.7 165 426.8 158.5C498 152 569 149 640 157.7C711 166.3 782 186.7 853.2 191.7C924.3 196.7 995.7 186.3 1066.8 177.8C1138 169.3 1209 162.7 1280 166.7C1351 170.7 1422 185.3 1493.2 194.5C1564.3 203.7 1635.7 207.3 1706.8 200.8C1778 194.3 1849 177.7 1884.5 169.3L1920 161L1920 251L1884.5 251C1849 251 1778 251 1706.8 251C1635.7 251 1564.3 251 1493.2 251C1422 251 1351 251 1280 251C1209 251 1138 251 1066.8 251C995.7 251 924.3 251 853.2 251C782 251 711 251 640 251C569 251 498 251 426.8 251C355.7 251 284.3 251 213.2 251C142 251 71 251 35.5 251L0 251Z" fill="#d53867"></path><path d="M0 178L35.5 184C71 190 142 202 213.2 208.5C284.3 215 355.7 216 426.8 215.5C498 215 569 213 640 215.8C711 218.7 782 226.3 853.2 221.2C924.3 216 995.7 198 1066.8 191C1138 184 1209 188 1280 190.3C1351 192.7 1422 193.3 1493.2 197.5C1564.3 201.7 1635.7 209.3 1706.8 211.5C1778 213.7 1849 210.3 1884.5 208.7L1920 207L1920 251L1884.5 251C1849 251 1778 251 1706.8 251C1635.7 251 1564.3 251 1493.2 251C1422 251 1351 251 1280 251C1209 251 1138 251 1066.8 251C995.7 251 924.3 251 853.2 251C782 251 711 251 640 251C569 251 498 251 426.8 251C355.7 251 284.3 251 213.2 251C142 251 71 251 35.5 251L0 251Z" fill="#c62368"></path></svg>