<svg id="visual" viewBox="0 0 540 200" width="540" height="200" xmlns="http://www.w3.org/2000/svg" xmlns:xlink="http://www.w3.org/1999/xlink" version="1.1"><path d="M0 19L11.3 19.3C22.7 19.7 45.3 20.3 67.8 23.5C90.3 26.7 112.7 32.3 135.2 34.8C157.7 37.3 180.3 36.7 202.8 33.2C225.3 29.7 247.7 23.3 270.2 22C292.7 20.7 315.3 24.3 337.8 30.7C360.3 37 382.7 46 405.2 44.7C427.7 43.3 450.3 31.7 472.8 29.5C495.3 27.3 517.7 34.7 528.8 38.3L540 42L540 201L528.8 201C517.7 201 495.3 201 472.8 201C450.3 201 427.7 201 405.2 201C382.7 201 360.3 201 337.8 201C315.3 201 292.7 201 270.2 201C247.7 201 225.3 201 202.8 201C180.3 201 157.7 201 135.2 201C112.7 201 90.3 201 67.8 201C45.3 201 22.7 201 11.3 201L0 201Z" fill="#fa7268"></path><path d="M0 65L11.3 69.3C22.7 73.7 45.3 82.3 67.8 82.5C90.3 82.7 112.7 74.3 135.2 74.2C157.7 74 180.3 82 202.8 84.5C225.3 87 247.7 84 270.2 77.5C292.7 71 315.3 61 337.8 57.3C360.3 53.7 382.7 56.3 405.2 62C427.7 67.7 450.3 76.3 472.8 78.7C495.3 81 517.7 77 528.8 75L540 73L540 201L528.8 201C517.7 201 495.3 201 472.8 201C450.3 201 427.7 201 405.2 201C382.7 201 360.3 201 337.8 201C315.3 201 292.7 201 270.2 201C247.7 201 225.3 201 202.8 201C180.3 201 157.7 201 135.2 201C112.7 201 90.3 201 67.8 201C45.3 201 22.7 201 11.3 201L0 201Z" fill="#ef5f67"></path><path d="M0 82L11.3 86.8C22.7 91.7 45.3 101.3 67.8 107C90.3 112.7 112.7 114.3 135.2 110C157.7 105.7 180.3 95.3 202.8 91.3C225.3 87.3 247.7 89.7 270.2 92.5C292.7 95.3 315.3 98.7 337.8 103.8C360.3 109 382.7 116 405.2 117C427.7 118 450.3 113 472.8 108C495.3 103 517.7 98 528.8 95.5L540 93L540 201L528.8 201C517.7 201 495.3 201 472.8 201C450.3 201 427.7 201 405.2 201C382.7 201 360.3 201 337.8 201C315.3 201 292.7 201 270.2 201C247.7 201 225.3 201 202.8 201C180.3 201 157.7 201 135.2 201C112.7 201 90.3 201 67.8 201C45.3 201 22.7 201 11.3 201L0 201Z" fill="#e34c67"></path><path d="M0 119L11.3 122.8C22.7 126.7 45.3 134.3 67.8 140C90.3 145.7 112.7 149.3 135.2 150.2C157.7 151 180.3 149 202.8 146.8C225.3 144.7 247.7 142.3 270.2 140.2C292.7 138 315.3 136 337.8 137.3C360.3 138.7 382.7 143.3 405.2 145.5C427.7 147.7 450.3 147.3 472.8 141.5C495.3 135.7 517.7 124.3 528.8 118.7L540 113L540 201L528.8 201C517.7 201 495.3 201 472.8 201C450.3 201 427.7 201 405.2 201C382.7 201 360.3 201 337.8 201C315.3 201 292.7 201 270.2 201C247.7 201 225.3 201 202.8 201C180.3 201 157.7 201 135.2 201C112.7 201 90.3 201 67.8 201C45.3 201 22.7 201 11.3 201L0 201Z" fill="#d53867"></path><path d="M0 149L11.3 154.2C22.7 159.3 45.3 169.7 67.8 173.7C90.3 177.7 112.7 175.3 135.2 174.2C157.7 173 180.3 173 202.8 168.8C225.3 164.7 247.7 156.3 270.2 157.7C292.7 159 315.3 170 337.8 170.3C360.3 170.7 382.7 160.3 405.2 160.8C427.7 161.3 450.3 172.7 472.8 173.7C495.3 174.7 517.7 165.3 528.8 160.7L540 156L540 201L528.8 201C517.7 201 495.3 201 472.8 201C450.3 201 427.7 201 405.2 201C382.7 201 360.3 201 337.8 201C315.3 201 292.7 201 270.2 201C247.7 201 225.3 201 202.8 201C180.3 201 157.7 201 135.2 201C112.7 201 90.3 201 67.8 201C45.3 201 22.7 201 11.3 201L0 201Z" fill="#c62368"></path></svg>